<svg width="46" height="40" viewBox="0 0 46 40" fill="none" xmlns="http://www.w3.org/2000/svg">
<mask id="path-1-inside-1_779_755" fill="white">
<path d="M4.70528 35.3427C0.424463 33.1143 -1.2393 27.8375 0.989151 23.5567L9.27725 7.63537C11.5057 3.35455 16.7825 1.69077 21.0633 3.91923L28.1097 7.58736C32.3906 9.81581 34.0543 15.0926 31.8259 19.3734L23.5378 35.2947C21.3093 39.5755 16.0325 41.2393 11.7517 39.0108L4.70528 35.3427Z"/>
<path d="M16.9778 32.4126C12.697 30.1842 11.0333 24.9074 13.2617 20.6266L21.5498 4.70529C23.7783 0.424473 29.0551 -1.2393 33.3359 0.989148L40.3823 4.65728C44.6631 6.88573 46.3269 12.1625 44.0984 16.4433L35.8103 32.3646C33.5819 36.6455 28.3051 38.3092 24.0243 36.0808L16.9778 32.4126Z"/>
</mask>
<path d="M4.70528 35.3427C0.424463 33.1143 -1.2393 27.8375 0.989151 23.5567L9.27725 7.63537C11.5057 3.35455 16.7825 1.69077 21.0633 3.91923L28.1097 7.58736C32.3906 9.81581 34.0543 15.0926 31.8259 19.3734L23.5378 35.2947C21.3093 39.5755 16.0325 41.2393 11.7517 39.0108L4.70528 35.3427Z" fill="#080B73"/>
<path d="M16.9778 32.4126C12.697 30.1842 11.0333 24.9074 13.2617 20.6266L21.5498 4.70529C23.7783 0.424473 29.0551 -1.2393 33.3359 0.989148L40.3823 4.65728C44.6631 6.88573 46.3269 12.1625 44.0984 16.4433L35.8103 32.3646C33.5819 36.6455 28.3051 38.3092 24.0243 36.0808L16.9778 32.4126Z" fill="white"/>
<path d="M23.5378 35.2947L24.4248 35.7565L23.5378 35.2947ZM11.7517 39.0108L12.2134 38.1238L12.2134 38.1238L11.7517 39.0108ZM28.1097 7.58736L28.5715 6.70035L28.5715 6.70035L28.1097 7.58736ZM31.8259 19.3734L30.9389 18.9117L31.8259 19.3734ZM9.27725 7.63537L8.39024 7.17362L8.39024 7.17362L9.27725 7.63537ZM21.0633 3.91923L20.6016 4.80624L20.6016 4.80624L21.0633 3.91923ZM0.989151 23.5567L1.87616 24.0184L1.87616 24.0184L0.989151 23.5567ZM4.70528 35.3427L4.24353 36.2297L4.24353 36.2297L4.70528 35.3427ZM35.8103 32.3646L34.9233 31.9029L34.9233 31.9029L35.8103 32.3646ZM24.0243 36.0808L24.486 35.1938L24.486 35.1938L24.0243 36.0808ZM40.3823 4.65728L39.9205 5.54429L39.9205 5.54429L40.3823 4.65728ZM44.0984 16.4433L44.9854 16.9051L44.9854 16.9051L44.0984 16.4433ZM21.5498 4.70529L20.6628 4.24354L21.5498 4.70529ZM33.3359 0.989148L33.7976 0.102137L33.7976 0.102137L33.3359 0.989148ZM13.2617 20.6266L14.1487 21.0883L13.2617 20.6266ZM16.9778 32.4126L16.5161 33.2997L16.5161 33.2997L16.9778 32.4126ZM1.87616 24.0184L10.1643 8.09711L8.39024 7.17362L0.10214 23.0949L1.87616 24.0184ZM20.6016 4.80624L27.648 8.47437L28.5715 6.70035L21.5251 3.03221L20.6016 4.80624ZM30.9389 18.9117L22.6508 34.833L24.4248 35.7565L32.7129 19.8352L30.9389 18.9117ZM12.2134 38.1238L5.16703 34.4557L4.24353 36.2297L11.2899 39.8979L12.2134 38.1238ZM22.6508 34.833C20.6773 38.6239 16.0044 40.0973 12.2134 38.1238L11.2899 39.8979C16.0606 42.3813 21.9413 40.5272 24.4248 35.7565L22.6508 34.833ZM27.648 8.47437C31.4389 10.4478 32.9123 15.1207 30.9389 18.9117L32.7129 19.8352C35.1963 15.0645 33.3422 9.18382 28.5715 6.70035L27.648 8.47437ZM10.1643 8.09711C12.1377 4.30618 16.8106 2.8328 20.6016 4.80624L21.5251 3.03221C16.7544 0.548746 10.8737 2.40292 8.39024 7.17362L10.1643 8.09711ZM0.10214 23.0949C-2.38133 27.8656 -0.527169 33.7463 4.24353 36.2297L5.16703 34.4557C1.37609 32.4823 -0.0972731 27.8093 1.87616 24.0184L0.10214 23.0949ZM14.1487 21.0883L22.4368 5.16704L20.6628 4.24354L12.3747 20.1648L14.1487 21.0883ZM32.8741 1.87616L39.9205 5.54429L40.844 3.77027L33.7976 0.102137L32.8741 1.87616ZM43.2114 15.9816L34.9233 31.9029L36.6973 32.8264L44.9854 16.9051L43.2114 15.9816ZM24.486 35.1938L17.4396 31.5256L16.5161 33.2997L23.5625 36.9678L24.486 35.1938ZM34.9233 31.9029C32.9499 35.6938 28.2769 37.1672 24.486 35.1938L23.5625 36.9678C28.3332 39.4513 34.2139 37.5971 36.6973 32.8264L34.9233 31.9029ZM39.9205 5.54429C43.7115 7.51773 45.1849 12.1907 43.2114 15.9816L44.9854 16.9051C47.4689 12.1344 45.6147 6.25374 40.844 3.77027L39.9205 5.54429ZM22.4368 5.16704C24.4103 1.3761 29.0832 -0.097275 32.8741 1.87616L33.7976 0.102137C29.0269 -2.38133 23.1463 -0.527157 20.6628 4.24354L22.4368 5.16704ZM12.3747 20.1648C9.89123 24.9355 11.7454 30.8162 16.5161 33.2997L17.4396 31.5256C13.6487 29.5522 12.1753 24.8793 14.1487 21.0883L12.3747 20.1648Z" fill="#FFBF00" mask="url(#path-1-inside-1_779_755)"/>
</svg>
